<?xml version='1.0' encoding='utf-8'?>
<svg height="177.83mm" viewBox="0.0 0.0 539.50 177.83" width="539.50mm" xmlns="http://www.w3.org/2000/svg" xmlns:cc="http://creativecommons.org/ns#" xmlns:dc="http://purl.org/dc/elements/1.1/" xmlns:inkscape="http://www.inkscape.org/namespaces/inkscape" xmlns:rdf="http://www.w3.org/1999/02/22-rdf-syntax-ns#" xmlns:svg="http://www.w3.org/2000/svg" xmlns:xlink="http://www.w3.org/1999/xlink">
<!--
Rack19Box - Closed box with screw on top for mounting in a 19" rack.

Created with Boxes.py (https://festi.info/boxes.py)
Creation date: 2023-11-22 14:24:03
Command line (remove spaces between dashes): boxes Rack19Box - -output=rack-leds-3mm.svg - -FingerJoint_space=4.0 - -burn=0 - -reference=0 - -depth=30 - -height=1 - -d1=5 - -d2=5 - -triangle=15
-->
<title>Rack19Box</title>
<metadata>
<rdf:RDF><cc:Work>
<dc:title>Box - Rack19Box</dc:title>
<dc:date>2023-11-22 14:24:03</dc:date>
<dc:source>boxes Rack19Box --output=rack-leds-3mm.svg --format=svg --FingerJoint_space=4.0 --thickness=3 --burn=0 --reference=0 --depth=30 --height=1 --d1=5 --d2=5 --triangle=15</dc:source>
<dc:description>Closed box with screw on top for mounting in a 19" rack.

Created with Boxes.py (https://festi.info/boxes.py)
Command line: boxes Rack19Box --output=rack-leds-3mm.svg --format=svg --FingerJoint_space=4.0 --thickness=3 --burn=0 --reference=0 --depth=30 --height=1 --d1=5 --d2=5 --triangle=15
Command line short: boxes Rack19Box --output=rack-leds-3mm.svg --FingerJoint_space=4.0 --burn=0 --reference=0 --depth=30 --height=1 --d1=5 --d2=5 --triangle=15
</dc:description>
</cc:Work></rdf:RDF></metadata>
<g id="p-0" style="fill:none;stroke-linecap:round;stroke-linejoin:round;">
  <path d="M 20.500 130.163 H 17.500 V 127.163 H 23.500 V 130.163 H 20.500 Z" stroke="rgb(0,0,255)" stroke-width="0.05" />
  <path d="M 35.500 127.163 H 38.500 V 130.163 H 32.500 V 127.163 H 35.500 Z" stroke="rgb(0,0,255)" stroke-width="0.05" />
  <text dominant-baseline="hanging" font-size="4px" style="font-family: sans-serif ; font-weight: normal; font-style: normal; fill: rgb(255,0,0)" text-anchor="middle" transform="matrix( 1.000 0.000 0.000 1.000 28.000 143.995 )">right</text><path d="M 13.000 164.826 H 16.000 V 167.826 H 22.000 V 164.826 H 34.000 V 167.826 H 40.000 V 164.826 H 43.000 V 156.495 H 46.000 V 150.495 H 43.000 V 138.495 H 46.000 V 132.495 H 43.000 V 124.163 H 13.000 V 132.495 H 10.000 V 138.495 H 13.000 V 150.495 H 10.000 V 156.495 H 13.000 V 164.826" stroke="rgb(0,0,0)" stroke-width="0.05" />
</g>
<g id="p-1" style="fill:none;stroke-linecap:round;stroke-linejoin:round;">
  <path d="M 56.000 165.076 H 54.250 C 53.680 165.076 53.119 164.926 52.625 164.641 C 52.131 164.355 51.721 163.945 51.435 163.451 C 51.150 162.957 51.000 162.396 51.000 161.826 C 51.000 161.256 51.150 160.695 51.435 160.201 C 51.721 159.707 52.131 159.297 52.625 159.011 C 53.119 158.726 53.680 158.576 54.250 158.576 H 57.750 C 58.320 158.576 58.881 158.726 59.375 159.011 C 59.869 159.297 60.279 159.707 60.565 160.201 C 60.850 160.695 61.000 161.256 61.000 161.826 C 61.000 162.396 60.850 162.957 60.565 163.451 C 60.279 163.945 59.869 164.355 59.375 164.641 C 58.881 164.926 58.320 165.076 57.750 165.076 H 56.000 Z" stroke="rgb(0,0,255)" stroke-width="0.05" />
  <path d="M 56.000 133.413 H 54.250 C 53.680 133.413 53.119 133.263 52.625 132.978 C 52.131 132.692 51.721 132.282 51.435 131.788 C 51.150 131.294 51.000 130.733 51.000 130.163 C 51.000 129.593 51.150 129.032 51.435 128.538 C 51.721 128.044 52.131 127.634 52.625 127.348 C 53.119 127.063 53.680 126.913 54.250 126.913 H 57.750 C 58.320 126.913 58.881 127.063 59.375 127.348 C 59.869 127.634 60.279 128.044 60.565 128.538 C 60.850 129.032 61.000 129.593 61.000 130.163 C 61.000 130.733 60.850 131.294 60.565 131.788 C 60.279 132.282 59.869 132.692 59.375 132.978 C 58.881 133.263 58.320 133.413 57.750 133.413 H 56.000 Z" stroke="rgb(0,0,255)" stroke-width="0.05" />
  <path d="M 521.000 165.076 H 519.250 C 518.680 165.076 518.119 164.926 517.625 164.641 C 517.131 164.355 516.721 163.945 516.435 163.451 C 516.150 162.957 516.000 162.396 516.000 161.826 C 516.000 161.256 516.150 160.695 516.435 160.201 C 516.721 159.707 517.131 159.297 517.625 159.011 C 518.119 158.726 518.680 158.576 519.250 158.576 H 522.750 C 523.320 158.576 523.881 158.726 524.375 159.011 C 524.869 159.297 525.279 159.707 525.565 160.201 C 525.850 160.695 526.000 161.256 526.000 161.826 C 526.000 162.396 525.850 162.957 525.565 163.451 C 525.279 163.945 524.869 164.355 524.375 164.641 C 523.881 164.926 523.320 165.076 522.750 165.076 H 521.000 Z" stroke="rgb(0,0,255)" stroke-width="0.05" />
  <path d="M 521.000 133.413 H 519.250 C 518.680 133.413 518.119 133.263 517.625 132.978 C 517.131 132.692 516.721 132.282 516.435 131.788 C 516.150 131.294 516.000 130.733 516.000 130.163 C 516.000 129.593 516.150 129.032 516.435 128.538 C 516.721 128.044 517.131 127.634 517.625 127.348 C 518.119 127.063 518.680 126.913 519.250 126.913 H 522.750 C 523.320 126.913 523.881 127.063 524.375 127.348 C 524.869 127.634 525.279 128.044 525.565 128.538 C 525.850 129.032 526.000 129.593 526.000 130.163 C 526.000 130.733 525.850 131.294 525.565 131.788 C 525.279 132.282 524.869 132.692 524.375 132.978 C 523.881 133.263 523.320 133.413 522.750 133.413 H 521.000 Z" stroke="rgb(0,0,255)" stroke-width="0.05" />
  <path d="M 75.000 130.163 H 72.000 V 127.163 H 78.000 V 130.163 H 75.000 Z" stroke="rgb(0,0,255)" stroke-width="0.05" />
  <path d="M 502.000 127.163 H 505.000 V 130.163 H 499.000 V 127.163 H 502.000 Z" stroke="rgb(0,0,255)" stroke-width="0.05" />
  <text dominant-baseline="hanging" font-size="4px" style="font-family: sans-serif ; font-weight: normal; font-style: normal; fill: rgb(255,0,0)" text-anchor="middle" transform="matrix( 1.000 0.000 0.000 1.000 288.500 143.995 )">front</text><path d="M 50.500 167.826 H 67.500 H 78.500 V 164.826 H 84.500 V 167.826 H 96.500 V 164.826 H 102.500 V 167.826 H 114.500 V 164.826 H 120.500 V 167.826 H 132.500 V 164.826 H 138.500 V 167.826 H 150.500 V 164.826 H 156.500 V 167.826 H 168.500 V 164.826 H 174.500 V 167.826 H 186.500 V 164.826 H 192.500 V 167.826 H 204.500 V 164.826 H 210.500 V 167.826 H 222.500 V 164.826 H 228.500 V 167.826 H 240.500 V 164.826 H 246.500 V 167.826 H 258.500 V 164.826 H 264.500 V 167.826 H 276.500 V 164.826 H 282.500 V 167.826 H 294.500 V 164.826 H 300.500 V 167.826 H 312.500 V 164.826 H 318.500 V 167.826 H 330.500 V 164.826 H 336.500 V 167.826 H 348.500 V 164.826 H 354.500 V 167.826 H 366.500 V 164.826 H 372.500 V 167.826 H 384.500 V 164.826 H 390.500 V 167.826 H 402.500 V 164.826 H 408.500 V 167.826 H 420.500 V 164.826 H 426.500 V 167.826 H 438.500 V 164.826 H 444.500 V 167.826 H 456.500 V 164.826 H 462.500 V 167.826 H 474.500 V 164.826 H 480.500 V 167.826 H 492.500 V 164.826 H 498.500 V 167.826 H 509.500 H 526.500 C 527.027 167.826 527.544 167.687 528.000 167.424 C 528.456 167.161 528.835 166.782 529.098 166.326 C 529.361 165.870 529.500 165.353 529.500 164.826 V 127.163 C 529.500 126.636 529.361 126.119 529.098 125.663 C 528.835 125.207 528.456 124.828 528.000 124.565 C 527.544 124.302 527.027 124.163 526.500 124.163 H 50.500 C 49.973 124.163 49.456 124.302 49.000 124.565 C 48.544 124.828 48.165 125.207 47.902 125.663 C 47.639 126.119 47.500 126.636 47.500 127.163 V 164.826 C 47.500 165.353 47.639 165.870 47.902 166.326 C 48.165 166.782 48.544 167.161 49.000 167.424 C 49.456 167.687 49.973 167.826 50.500 167.826" stroke="rgb(0,0,0)" stroke-width="0.05" />
  <path d="M 512.500 153.495 V 156.495 H 509.500 V 150.495 H 512.500 V 153.495 Z" stroke="rgb(0,0,255)" stroke-width="0.05" />
  <path d="M 512.500 135.495 V 138.495 H 509.500 V 132.495 H 512.500 V 135.495 Z" stroke="rgb(0,0,255)" stroke-width="0.05" />
  <path d="M 64.500 135.494 V 132.494 H 67.500 V 138.494 H 64.500 V 135.494 Z" stroke="rgb(0,0,255)" stroke-width="0.05" />
  <path d="M 64.500 153.494 V 150.494 H 67.500 V 156.494 H 64.500 V 153.494 Z" stroke="rgb(0,0,255)" stroke-width="0.05" />
</g>
<g id="p-2" style="fill:none;stroke-linecap:round;stroke-linejoin:round;">
  <path d="M 58.000 85.000 H 55.000 V 82.000 H 61.000 V 85.000 H 58.000 Z" stroke="rgb(0,0,255)" stroke-width="0.05" />
  <path d="M 485.000 82.000 H 488.000 V 85.000 H 482.000 V 82.000 H 485.000 Z" stroke="rgb(0,0,255)" stroke-width="0.05" />
  <text dominant-baseline="hanging" font-size="4px" style="font-family: sans-serif ; font-weight: normal; font-style: normal; fill: rgb(255,0,0)" text-anchor="middle" transform="matrix( 1.000 0.000 0.000 1.000 271.500 98.832 )">back</text><path d="M 50.500 119.663 H 61.500 V 122.663 H 67.500 V 119.663 H 79.500 V 122.663 H 85.500 V 119.663 H 97.500 V 122.663 H 103.500 V 119.663 H 115.500 V 122.663 H 121.500 V 119.663 H 133.500 V 122.663 H 139.500 V 119.663 H 151.500 V 122.663 H 157.500 V 119.663 H 169.500 V 122.663 H 175.500 V 119.663 H 187.500 V 122.663 H 193.500 V 119.663 H 205.500 V 122.663 H 211.500 V 119.663 H 223.500 V 122.663 H 229.500 V 119.663 H 241.500 V 122.663 H 247.500 V 119.663 H 259.500 V 122.663 H 265.500 V 119.663 H 277.500 V 122.663 H 283.500 V 119.663 H 295.500 V 122.663 H 301.500 V 119.663 H 313.500 V 122.663 H 319.500 V 119.663 H 331.500 V 122.663 H 337.500 V 119.663 H 349.500 V 122.663 H 355.500 V 119.663 H 367.500 V 122.663 H 373.500 V 119.663 H 385.500 V 122.663 H 391.500 V 119.663 H 403.500 V 122.663 H 409.500 V 119.663 H 421.500 V 122.663 H 427.500 V 119.663 H 439.500 V 122.663 H 445.500 V 119.663 H 457.500 V 122.663 H 463.500 V 119.663 H 475.500 V 122.663 H 481.500 V 119.663 H 492.500 H 495.500 V 111.332 H 492.500 V 105.332 H 495.500 V 93.332 H 492.500 V 87.332 H 495.500 V 79.000 H 492.500 H 50.500 H 47.500 V 87.332 H 50.500 V 93.332 H 47.500 V 105.332 H 50.500 V 111.332 H 47.500 V 119.663 H 50.500" stroke="rgb(0,0,0)" stroke-width="0.05" />
  <path d="M 486.500 99.332 V 106.332 C 486.500 106.858 486.361 107.375 486.098 107.832 C 485.835 108.288 485.456 108.666 485.000 108.930 C 484.544 109.193 484.027 109.332 483.500 109.332 H 469.500 C 468.973 109.332 468.456 109.193 468.000 108.930 C 467.544 108.666 467.165 108.288 466.902 107.832 C 466.639 107.375 466.500 106.858 466.500 106.332 V 92.332 C 466.500 91.805 466.639 91.288 466.902 90.832 C 467.165 90.375 467.544 89.997 468.000 89.733 C 468.456 89.470 468.973 89.332 469.500 89.332 H 483.500 C 484.027 89.332 484.544 89.470 485.000 89.733 C 485.456 89.997 485.835 90.375 486.098 90.832 C 486.361 91.288 486.500 91.805 486.500 92.332 V 99.332 Z" stroke="rgb(0,0,255)" stroke-width="0.05" />
</g>
<g id="p-3" style="fill:none;stroke-linecap:round;stroke-linejoin:round;">
  <path d="M 20.500 85.000 H 17.500 V 82.000 H 23.500 V 85.000 H 20.500 Z" stroke="rgb(0,0,255)" stroke-width="0.05" />
  <path d="M 35.500 82.000 H 38.500 V 85.000 H 32.500 V 82.000 H 35.500 Z" stroke="rgb(0,0,255)" stroke-width="0.05" />
  <text dominant-baseline="hanging" font-size="4px" style="font-family: sans-serif ; font-weight: normal; font-style: normal; fill: rgb(255,0,0)" text-anchor="middle" transform="matrix( 1.000 0.000 0.000 1.000 28.000 98.832 )">left</text><path d="M 13.000 119.663 H 16.000 V 122.663 H 22.000 V 119.663 H 34.000 V 122.663 H 40.000 V 119.663 H 43.000 V 111.332 H 46.000 V 105.332 H 43.000 V 93.332 H 46.000 V 87.332 H 43.000 V 79.000 H 13.000 V 87.332 H 10.000 V 93.332 H 13.000 V 105.332 H 10.000 V 111.332 H 13.000 V 119.663" stroke="rgb(0,0,0)" stroke-width="0.05" />
</g>
<g id="p-4" style="fill:none;stroke-linecap:round;stroke-linejoin:round;">
  <text dominant-baseline="hanging" font-size="4px" style="font-family: sans-serif ; font-weight: normal; font-style: normal; fill: rgb(255,0,0)" text-anchor="middle" transform="matrix( 1.000 0.000 0.000 1.000 234.000 57.500 )">bottom</text><path d="M 13.000 74.500 H 24.000 V 77.500 H 30.000 V 74.500 H 42.000 V 77.500 H 48.000 V 74.500 H 60.000 V 77.500 H 66.000 V 74.500 H 78.000 V 77.500 H 84.000 V 74.500 H 96.000 V 77.500 H 102.000 V 74.500 H 114.000 V 77.500 H 120.000 V 74.500 H 132.000 V 77.500 H 138.000 V 74.500 H 150.000 V 77.500 H 156.000 V 74.500 H 168.000 V 77.500 H 174.000 V 74.500 H 186.000 V 77.500 H 192.000 V 74.500 H 204.000 V 77.500 H 210.000 V 74.500 H 222.000 V 77.500 H 228.000 V 74.500 H 240.000 V 77.500 H 246.000 V 74.500 H 258.000 V 77.500 H 264.000 V 74.500 H 276.000 V 77.500 H 282.000 V 74.500 H 294.000 V 77.500 H 300.000 V 74.500 H 312.000 V 77.500 H 318.000 V 74.500 H 330.000 V 77.500 H 336.000 V 74.500 H 348.000 V 77.500 H 354.000 V 74.500 H 366.000 V 77.500 H 372.000 V 74.500 H 384.000 V 77.500 H 390.000 V 74.500 H 402.000 V 77.500 H 408.000 V 74.500 H 420.000 V 77.500 H 426.000 V 74.500 H 438.000 V 77.500 H 444.000 V 74.500 H 455.000 H 458.000 V 71.500 H 455.000 V 65.500 H 458.000 V 53.500 H 455.000 V 47.500 H 458.000 V 44.500 V 41.500 H 455.000 H 444.000 V 44.500 H 438.000 V 41.500 H 426.000 V 44.500 H 420.000 V 41.500 H 408.000 V 44.500 H 402.000 V 41.500 H 390.000 V 44.500 H 384.000 V 41.500 H 372.000 V 44.500 H 366.000 V 41.500 H 354.000 V 44.500 H 348.000 V 41.500 H 336.000 V 44.500 H 330.000 V 41.500 H 318.000 V 44.500 H 312.000 V 41.500 H 300.000 V 44.500 H 294.000 V 41.500 H 282.000 V 44.500 H 276.000 V 41.500 H 264.000 V 44.500 H 258.000 V 41.500 H 246.000 V 44.500 H 240.000 V 41.500 H 228.000 V 44.500 H 222.000 V 41.500 H 210.000 V 44.500 H 204.000 V 41.500 H 192.000 V 44.500 H 186.000 V 41.500 H 174.000 V 44.500 H 168.000 V 41.500 H 156.000 V 44.500 H 150.000 V 41.500 H 138.000 V 44.500 H 132.000 V 41.500 H 120.000 V 44.500 H 114.000 V 41.500 H 102.000 V 44.500 H 96.000 V 41.500 H 84.000 V 44.500 H 78.000 V 41.500 H 66.000 V 44.500 H 60.000 V 41.500 H 48.000 V 44.500 H 42.000 V 41.500 H 30.000 V 44.500 H 24.000 V 41.500 H 13.000 H 10.000 V 44.500 V 47.500 H 13.000 V 53.500 H 10.000 V 65.500 H 13.000 V 71.500 H 10.000 V 74.500 H 13.000" stroke="rgb(0,0,0)" stroke-width="0.05" />
</g>
<g id="p-5" style="fill:none;stroke-linecap:round;stroke-linejoin:round;">
  <path d="M 17.500 35.000 C 17.500 35.479 17.362 35.948 17.103 36.352 C 16.844 36.755 16.474 37.075 16.039 37.274 C 15.603 37.473 15.119 37.543 14.644 37.475 C 14.170 37.406 13.725 37.203 13.363 36.889 C 13.001 36.576 12.736 36.164 12.601 35.704 C 12.466 35.244 12.466 34.756 12.601 34.296 C 12.736 33.836 13.001 33.424 13.363 33.111 C 13.725 32.797 14.170 32.594 14.644 32.525 C 15.119 32.457 15.603 32.527 16.039 32.726 C 16.474 32.925 16.844 33.245 17.103 33.648 C 17.362 34.052 17.500 34.521 17.500 35.000 Z" stroke="rgb(0,0,255)" stroke-width="0.05" />
  <text dominant-baseline="hanging" font-size="4px" style="font-family: sans-serif ; font-weight: normal; font-style: normal; fill: rgb(255,0,0)" text-anchor="middle" transform="matrix( 1.000 0.000 0.000 1.000 231.000 23.000 )">lid</text><path d="M 10.000 40.000 H 452.000 V 10.000 H 10.000 V 40.000" stroke="rgb(0,0,0)" stroke-width="0.05" />
  <path d="M 447.000 32.500 C 447.479 32.500 447.948 32.638 448.352 32.897 C 448.755 33.156 449.075 33.526 449.274 33.961 C 449.473 34.397 449.543 34.881 449.475 35.356 C 449.406 35.830 449.203 36.275 448.889 36.637 C 448.576 36.999 448.164 37.264 447.704 37.399 C 447.244 37.534 446.756 37.534 446.296 37.399 C 445.836 37.264 445.424 36.999 445.111 36.637 C 444.797 36.275 444.594 35.830 444.525 35.356 C 444.457 34.881 444.527 34.397 444.726 33.961 C 444.925 33.526 445.245 33.156 445.648 32.897 C 446.052 32.638 446.521 32.500 447.000 32.500 Z" stroke="rgb(0,0,255)" stroke-width="0.05" />
  <path d="M 444.500 15.000 C 444.500 14.521 444.638 14.052 444.897 13.648 C 445.156 13.245 445.526 12.925 445.961 12.726 C 446.397 12.527 446.881 12.457 447.356 12.525 C 447.830 12.594 448.275 12.797 448.637 13.111 C 448.999 13.424 449.264 13.836 449.399 14.296 C 449.534 14.756 449.534 15.244 449.399 15.704 C 449.264 16.164 448.999 16.576 448.637 16.889 C 448.275 17.203 447.830 17.406 447.356 17.475 C 446.881 17.543 446.397 17.473 445.961 17.274 C 445.526 17.075 445.156 16.755 444.897 16.352 C 444.638 15.948 444.500 15.479 444.500 15.000 Z" stroke="rgb(0,0,255)" stroke-width="0.05" />
  <path d="M 15.000 17.500 C 14.521 17.500 14.052 17.362 13.648 17.103 C 13.245 16.844 12.925 16.474 12.726 16.039 C 12.527 15.603 12.457 15.119 12.525 14.644 C 12.594 14.170 12.797 13.725 13.111 13.363 C 13.424 13.001 13.836 12.736 14.296 12.601 C 14.756 12.466 15.244 12.466 15.704 12.601 C 16.164 12.736 16.576 13.001 16.889 13.363 C 17.203 13.725 17.406 14.170 17.475 14.644 C 17.543 15.119 17.473 15.603 17.274 16.039 C 17.075 16.474 16.755 16.844 16.352 17.103 C 15.948 17.362 15.479 17.500 15.000 17.500 Z" stroke="rgb(0,0,255)" stroke-width="0.05" />
</g>
<g id="p-6" style="fill:none;stroke-linecap:round;stroke-linejoin:round;">
  <path d="M 460.743 37.000 H 465.243 V 40.000 H 471.243 V 37.000 H 475.743 V 32.500 H 478.743 V 26.500 H 475.743 V 22.000 L 460.743 37.000 Z" stroke="rgb(0,0,0)" stroke-width="0.05" />
  <path d="M 470.743 29.500 C 471.222 29.500 471.691 29.638 472.094 29.897 C 472.497 30.156 472.818 30.526 473.017 30.961 C 473.216 31.397 473.285 31.881 473.217 32.356 C 473.149 32.830 472.946 33.275 472.632 33.637 C 472.318 33.999 471.907 34.264 471.447 34.399 C 470.987 34.534 470.498 34.534 470.038 34.399 C 469.578 34.264 469.167 33.999 468.853 33.637 C 468.539 33.275 468.336 32.830 468.268 32.356 C 468.200 31.881 468.269 31.397 468.469 30.961 C 468.668 30.526 468.988 30.156 469.391 29.897 C 469.794 29.638 470.263 29.500 470.743 29.500 Z" stroke="rgb(0,0,255)" stroke-width="0.05" />
  <path d="M 471.500 22.000 H 467.000 V 19.000 H 461.000 V 22.000 H 456.500 V 26.500 H 453.500 V 32.500 H 456.500 V 37.000 L 471.500 22.000 Z" stroke="rgb(0,0,0)" stroke-width="0.05" />
  <path d="M 461.500 29.500 C 461.021 29.500 460.552 29.362 460.148 29.103 C 459.745 28.844 459.425 28.474 459.226 28.039 C 459.027 27.603 458.957 27.119 459.025 26.644 C 459.094 26.170 459.297 25.725 459.611 25.363 C 459.924 25.001 460.336 24.736 460.796 24.601 C 461.256 24.466 461.744 24.466 462.204 24.601 C 462.664 24.736 463.076 25.001 463.389 25.363 C 463.703 25.725 463.906 26.170 463.975 26.644 C 464.043 27.119 463.973 27.603 463.774 28.039 C 463.575 28.474 463.255 28.844 462.852 29.103 C 462.448 29.362 461.979 29.500 461.500 29.500 Z" stroke="rgb(0,0,255)" stroke-width="0.05" />
  <path d="M 487.485 37.000 H 491.985 V 40.000 H 497.985 V 37.000 H 502.485 V 32.500 H 505.485 V 26.500 H 502.485 V 22.000 L 487.485 37.000 Z" stroke="rgb(0,0,0)" stroke-width="0.05" />
  <path d="M 497.485 29.500 C 497.965 29.500 498.434 29.638 498.837 29.897 C 499.240 30.156 499.560 30.526 499.759 30.961 C 499.958 31.397 500.028 31.881 499.960 32.356 C 499.892 32.830 499.689 33.275 499.375 33.637 C 499.061 33.999 498.649 34.264 498.190 34.399 C 497.730 34.534 497.241 34.534 496.781 34.399 C 496.321 34.264 495.910 33.999 495.596 33.637 C 495.282 33.275 495.079 32.830 495.011 32.356 C 494.943 31.881 495.012 31.397 495.211 30.961 C 495.410 30.526 495.730 30.156 496.134 29.897 C 496.537 29.638 497.006 29.500 497.485 29.500 Z" stroke="rgb(0,0,255)" stroke-width="0.05" />
  <path d="M 498.243 22.000 H 493.743 V 19.000 H 487.743 V 22.000 H 483.243 V 26.500 H 480.243 V 32.500 H 483.243 V 37.000 L 498.243 22.000 Z" stroke="rgb(0,0,0)" stroke-width="0.05" />
  <path d="M 488.243 29.500 C 487.763 29.500 487.294 29.362 486.891 29.103 C 486.488 28.844 486.168 28.474 485.969 28.039 C 485.769 27.603 485.700 27.119 485.768 26.644 C 485.836 26.170 486.039 25.725 486.353 25.363 C 486.667 25.001 487.078 24.736 487.538 24.601 C 487.998 24.466 488.487 24.466 488.947 24.601 C 489.407 24.736 489.818 25.001 490.132 25.363 C 490.446 25.725 490.649 26.170 490.717 26.644 C 490.785 27.119 490.716 27.603 490.517 28.039 C 490.318 28.474 489.997 28.844 489.594 29.103 C 489.191 29.362 488.722 29.500 488.243 29.500 Z" stroke="rgb(0,0,255)" stroke-width="0.05" />
</g>
</svg>